<?xml version="1.0" standalone="no"?><!DOCTYPE svg PUBLIC "-//W3C//DTD SVG 1.1//EN" "http://www.w3.org/Graphics/SVG/1.1/DTD/svg11.dtd"><svg t="1572455621392" class="icon" viewBox="0 0 1024 1024" version="1.1" xmlns="http://www.w3.org/2000/svg" p-id="748" width="32" height="32" xmlns:xlink="http://www.w3.org/1999/xlink"><defs><style type="text/css"></style></defs><path d="M462.3 722.6H250.5c-18 0-32.6 13.7-32.6 30.4 0 16.8 14.6 30.4 32.6 30.4h211.8c18 0 32.6-13.6 32.6-30.4-0.1-16.7-14.7-30.4-32.6-30.4zM709.5 601h-459c-18 0-32.6 13.6-32.6 30.4 0 16.8 14.6 30.4 32.6 30.4h459c18 0 32.6-13.6 32.6-30.4 0-16.8-14.6-30.4-32.6-30.4zM709.5 479.3h-459c-18 0-32.6 13.6-32.6 30.4 0 16.8 14.6 30.4 32.6 30.4h459c18 0 32.6-13.7 32.6-30.4s-14.6-30.4-32.6-30.4z" fill="#1296db" p-id="749"></path><path d="M778.7 98.2H181.3c-64.8 0-117.4 43.9-117.4 98v634.1c0 54 52.6 98 117.4 98h597.4c64.8 0 117.4-44 117.4-98.1v-634c0-54.1-52.6-98-117.4-98z m58.7 731.9c0 27.1-26.3 39.1-58.7 39.1H181.3c-32.3 0-58.7-12-58.7-39.1v-634c0-27.1 26.3-39.1 58.7-39.1h597.4c32.3 0 58.7 12 58.7 39.1v634z" fill="#1296db" p-id="750"></path><path d="M251.9 436.9c7.9 0 15.5-2.7 21.6-7.6l142.3-118.1 96.1 84.8c12.2 10.6 31 11 43.7 0.8l174-140.8c6.7-5.5 10.6-13.2 11.1-21.5 0.4-8.2-2.6-16.1-8.6-22.1-12.1-12.1-31.9-13.1-45.2-2.3L535.1 332.9l-96.3-85c-12.4-10.9-31.3-11.2-44.1-0.7L230.1 383.8c-6.6 5.6-10.4 13.2-10.8 21.5-0.3 8.2 2.8 16.1 8.8 22 6.2 6.2 14.8 9.6 23.8 9.6z" fill="#1296db" p-id="751"></path></svg>